<?xml version="1.0" encoding="utf-8" ?>
<!DOCTYPE svg PUBLIC "-//W3C//DTD SVG 1.1//EN" "http://www.w3.org/Graphics/SVG/1.1/DTD/svg11.dtd">
<svg height="412" version="1.1" width="773" xmlns="http://www.w3.org/2000/svg">
<rect fill="#ffffc8" height="168" stroke="#ffffc8" stroke-width="1" width="392" x="367" y="166"/>
<rect fill="none" height="168" stroke="#000000" stroke-width="1" width="392" x="367" y="166"/>
<text font-family="Dialog" font-size="12" x="556" y="179">
XY</text>
<rect fill="#000000" height="1" stroke="#000000" stroke-width="1" width="392" x="367" y="189"/>
<text font-family="Dialog" font-size="12" x="371" y="203">
x : double</text>
<text font-family="Dialog" font-size="12" x="371" y="219">
y : double</text>
<rect fill="#000000" height="1" stroke="#000000" stroke-width="1" width="392" x="367" y="229"/>
<text font-family="Dialog" font-size="12" x="371" y="243">
&lt;&lt;create&gt;&gt; XY(x : double,y : double)</text>
<line fill="#000000" stroke="#000000" stroke-width="1" x1="371" x2="603" y1="260" y2="260"/>
<text font-family="Dialog" font-size="12" x="371" y="259">
unMarshall(string : StringBuilder) : XY</text>
<text font-family="Dialog" font-size="12" x="371" y="275">
getX() : double</text>
<text font-family="Dialog" font-size="12" x="371" y="291">
getY() : double</text>
<text font-family="Dialog" font-size="12" x="371" y="307">
marshallNumber(string : StringBuilder,number : double) : void</text>
<text font-family="Dialog" font-size="12" x="371" y="323">
marshall(string : StringBuilder) : void</text>
<rect fill="#ffffc8" height="24" stroke="#ffffc8" stroke-width="1" width="66" x="210" y="270"/>
<rect fill="none" height="24" stroke="#000000" stroke-width="1" width="66" x="210" y="270"/>
<text font-family="Dialog" font-size="12" x="227" y="283">
Point</text>
<rect fill="#ffffff" height="67" stroke="#ffffff" stroke-width="1" width="236" x="191" y="14"/>
<rect fill="none" height="67" stroke="#000000" stroke-width="1" width="236" x="191" y="14"/>
<text font-family="Dialog" font-size="12" x="269" y="46">
Marshallable</text>
<text font-family="Dialog" font-size="12" x="261" y="28">
&lt;&lt;interface&gt;&gt;</text>
<rect fill="#000000" height="1" stroke="#000000" stroke-width="1" width="236" x="191" y="56"/>
<text font-family="Dialog" font-size="12" x="195" y="70">
marshall(string : StringBuilder) : void</text>
<line fill="#000000" stroke="#000000" stroke-width="1" x1="426" x2="426" y1="166" y2="161"/>
<line fill="#000000" stroke="#000000" stroke-width="1" x1="426" x2="426" y1="156" y2="151"/>
<line fill="#000000" stroke="#000000" stroke-width="1" x1="426" x2="426" y1="146" y2="141"/>
<line fill="#000000" stroke="#000000" stroke-width="1" x1="426" x2="426" y1="136" y2="131"/>
<line fill="#000000" stroke="#000000" stroke-width="1" x1="426" x2="426" y1="126" y2="121"/>
<line fill="#000000" stroke="#000000" stroke-width="1" x1="426" x2="426" y1="116" y2="111"/>
<line fill="#000000" stroke="#000000" stroke-width="1" x1="426" x2="426" y1="106" y2="101"/>
<line fill="#000000" stroke="#000000" stroke-width="1" x1="426" x2="426" y1="96" y2="91"/>
<line fill="#000000" stroke="#000000" stroke-width="1" x1="426" x2="426" y1="86" y2="81"/>
<polygon fill="#ffffff" points="426,80 433,92 419,92" stroke="#ffffff" stroke-width="1"/>
<polygon fill="none" points="426,80 433,92 419,92" stroke="#000000" stroke-width="1"/>
<text font-family="Dialog" font-size="12" x="432" y="129">
&lt;&lt;realize&gt;&gt;</text>
<rect fill="#ffffc8" height="24" stroke="#ffffc8" stroke-width="1" width="66" x="58" y="374"/>
<rect fill="none" height="24" stroke="#000000" stroke-width="1" width="66" x="58" y="374"/>
<text font-family="Dialog" font-size="12" x="66" y="387">
Polygon</text>
<rect fill="#ffffc8" height="24" stroke="#ffffc8" stroke-width="1" width="66" x="271" y="166"/>
<rect fill="none" height="24" stroke="#000000" stroke-width="1" width="66" x="271" y="166"/>
<text font-family="Dialog" font-size="12" x="286" y="179">
XYList</text>
<line fill="#000000" stroke="#000000" stroke-width="1" x1="303" x2="303" y1="166" y2="161"/>
<line fill="#000000" stroke="#000000" stroke-width="1" x1="303" x2="303" y1="156" y2="151"/>
<line fill="#000000" stroke="#000000" stroke-width="1" x1="303" x2="303" y1="146" y2="141"/>
<line fill="#000000" stroke="#000000" stroke-width="1" x1="303" x2="303" y1="136" y2="131"/>
<line fill="#000000" stroke="#000000" stroke-width="1" x1="303" x2="303" y1="126" y2="121"/>
<line fill="#000000" stroke="#000000" stroke-width="1" x1="303" x2="303" y1="116" y2="111"/>
<line fill="#000000" stroke="#000000" stroke-width="1" x1="303" x2="303" y1="106" y2="101"/>
<line fill="#000000" stroke="#000000" stroke-width="1" x1="303" x2="303" y1="96" y2="91"/>
<line fill="#000000" stroke="#000000" stroke-width="1" x1="303" x2="303" y1="86" y2="81"/>
<polygon fill="#ffffff" points="303,80 310,92 296,92" stroke="#ffffff" stroke-width="1"/>
<polygon fill="none" points="303,80 310,92 296,92" stroke="#000000" stroke-width="1"/>
<text font-family="Dialog" font-size="12" x="310" y="119">
&lt;&lt;realize&gt;&gt;</text>
<rect fill="#ffffc8" height="24" stroke="#ffffc8" stroke-width="1" width="71" x="130" y="166"/>
<rect fill="none" height="24" stroke="#000000" stroke-width="1" width="71" x="130" y="166"/>
<text font-family="Dialog" font-size="12" font-style="italic" x="135" y="179">
Geometry</text>
<line fill="#000000" stroke="#000000" stroke-width="1" x1="167" x2="167" y1="166" y2="161"/>
<line fill="#000000" stroke="#000000" stroke-width="1" x1="167" x2="167" y1="156" y2="151"/>
<line fill="#000000" stroke="#000000" stroke-width="1" x1="167" x2="167" y1="146" y2="141"/>
<line fill="#000000" stroke="#000000" stroke-width="1" x1="167" x2="167" y1="136" y2="134"/>
<line fill="#000000" stroke="#000000" stroke-width="1" x1="167" x2="172" y1="134" y2="134"/>
<line fill="#000000" stroke="#000000" stroke-width="1" x1="177" x2="182" y1="134" y2="134"/>
<line fill="#000000" stroke="#000000" stroke-width="1" x1="187" x2="192" y1="134" y2="134"/>
<line fill="#000000" stroke="#000000" stroke-width="1" x1="197" x2="202" y1="134" y2="134"/>
<line fill="#000000" stroke="#000000" stroke-width="1" x1="207" x2="212" y1="134" y2="134"/>
<line fill="#000000" stroke="#000000" stroke-width="1" x1="217" x2="222" y1="134" y2="134"/>
<line fill="#000000" stroke="#000000" stroke-width="1" x1="227" x2="232" y1="134" y2="134"/>
<line fill="#000000" stroke="#000000" stroke-width="1" x1="237" x2="242" y1="134" y2="134"/>
<line fill="#000000" stroke="#000000" stroke-width="1" x1="247" x2="247" y1="134" y2="129"/>
<line fill="#000000" stroke="#000000" stroke-width="1" x1="247" x2="247" y1="124" y2="119"/>
<line fill="#000000" stroke="#000000" stroke-width="1" x1="247" x2="247" y1="114" y2="109"/>
<line fill="#000000" stroke="#000000" stroke-width="1" x1="247" x2="247" y1="104" y2="99"/>
<line fill="#000000" stroke="#000000" stroke-width="1" x1="247" x2="247" y1="94" y2="89"/>
<line fill="#000000" stroke="#000000" stroke-width="1" x1="247" x2="247" y1="84" y2="80"/>
<polygon fill="#ffffff" points="247,80 254,92 240,92" stroke="#ffffff" stroke-width="1"/>
<polygon fill="none" points="247,80 254,92 240,92" stroke="#000000" stroke-width="1"/>
<text font-family="Dialog" font-size="12" x="111" y="115">
&lt;&lt;realize&gt;&gt;</text>
<polyline fill="none" points="241,270 241,242 163,242 163,189" stroke="#000000" stroke-width="1"/>
<polygon fill="#ffffff" points="163,189 170,201 156,201" stroke="#ffffff" stroke-width="1"/>
<polygon fill="none" points="163,189 170,201 156,201" stroke="#000000" stroke-width="1"/>
<rect fill="#ffffc8" height="24" stroke="#ffffc8" stroke-width="1" width="72" x="55" y="270"/>
<rect fill="none" height="24" stroke="#000000" stroke-width="1" width="72" x="55" y="270"/>
<text font-family="Dialog" font-size="12" x="60" y="283">
LineString</text>
<polyline fill="none" points="89,270 89,242 163,242 163,189" stroke="#000000" stroke-width="1"/>
<polygon fill="#ffffff" points="163,189 170,201 156,201" stroke="#ffffff" stroke-width="1"/>
<polygon fill="none" points="163,189 170,201 156,201" stroke="#000000" stroke-width="1"/>
<polyline fill="none" points="89,374 89,293" stroke="#000000" stroke-width="1"/>
<polygon fill="#ffffff" points="89,293 96,305 82,305" stroke="#ffffff" stroke-width="1"/>
<polygon fill="none" points="89,293 96,305 82,305" stroke="#000000" stroke-width="1"/>
</svg>
